<svg width="120" height="30" viewBox="0 0 120 30" fill="none" xmlns="http://www.w3.org/2000/svg">
<rect x="0.5" y="0.5" width="119" height="29" rx="14.5" fill="#141414"/>
<rect x="0.5" y="0.5" width="119" height="29" rx="14.5" stroke="#262626"/>
<path d="M17 8L19.4234 11.6644L23.6574 12.8369L20.9212 16.2741L21.1145 20.6631L17 19.123L12.8855 20.6631L13.0788 16.2741L10.3426 12.8369L14.5766 11.6644L17 8Z" fill="#E60000"/>
<path d="M32 8L34.4234 11.6644L38.6574 12.8369L35.9212 16.2741L36.1145 20.6631L32 19.123L27.8855 20.6631L28.0788 16.2741L25.3426 12.8369L29.5766 11.6644L32 8Z" fill="#E60000"/>
<path d="M47 8L49.4234 11.6644L53.6574 12.8369L50.9212 16.2741L51.1145 20.6631L47 19.123L42.8855 20.6631L43.0788 16.2741L40.3426 12.8369L44.5766 11.6644L47 8Z" fill="#E60000"/>
<path d="M62 8L64.4234 11.6644L68.6574 12.8369L65.9212 16.2741L66.1145 20.6631L62 19.123L57.8855 20.6631L58.0788 16.2741L55.3426 12.8369L59.5766 11.6644L62 8Z" fill="#E60000"/>
<path d="M77 8L79.4234 11.6644L83.6574 12.8369L80.9212 16.2741L81.1145 20.6631L77 19.123L72.8855 20.6631L73.0788 16.2741L70.3426 12.8369L74.5766 11.6644L77 8Z" fill="#999999"/>
<path d="M88.6 19.994L88.606 19.034L92.44 15.584C92.76 15.296 92.974 15.024 93.082 14.768C93.194 14.508 93.25 14.242 93.25 13.97C93.25 13.638 93.174 13.338 93.022 13.07C92.87 12.802 92.662 12.59 92.398 12.434C92.138 12.278 91.842 12.2 91.51 12.2C91.166 12.2 90.86 12.282 90.592 12.446C90.324 12.606 90.112 12.82 89.956 13.088C89.804 13.356 89.73 13.648 89.734 13.964H88.642C88.642 13.42 88.768 12.94 89.02 12.524C89.272 12.104 89.614 11.776 90.046 11.54C90.482 11.3 90.976 11.18 91.528 11.18C92.064 11.18 92.544 11.304 92.968 11.552C93.392 11.796 93.726 12.13 93.97 12.554C94.218 12.974 94.342 13.45 94.342 13.982C94.342 14.358 94.294 14.684 94.198 14.96C94.106 15.236 93.962 15.492 93.766 15.728C93.57 15.96 93.324 16.208 93.028 16.472L89.842 19.334L89.704 18.974H94.342V19.994H88.6ZM98.6935 20.18C98.1335 20.18 97.6335 20.054 97.1935 19.802C96.7575 19.546 96.4115 19.2 96.1555 18.764C95.9035 18.324 95.7775 17.824 95.7775 17.264V14.096C95.7775 13.536 95.9035 13.036 96.1555 12.596C96.4115 12.156 96.7575 11.81 97.1935 11.558C97.6335 11.306 98.1335 11.18 98.6935 11.18C99.2535 11.18 99.7535 11.306 100.194 11.558C100.634 11.81 100.98 12.156 101.232 12.596C101.484 13.036 101.61 13.536 101.61 14.096V17.264C101.61 17.824 101.484 18.324 101.232 18.764C100.98 19.2 100.634 19.546 100.194 19.802C99.7535 20.054 99.2535 20.18 98.6935 20.18ZM98.6935 19.154C99.0335 19.154 99.3415 19.072 99.6175 18.908C99.8935 18.744 100.114 18.524 100.278 18.248C100.442 17.968 100.524 17.66 100.524 17.324V14.03C100.524 13.69 100.442 13.382 100.278 13.106C100.114 12.83 99.8935 12.61 99.6175 12.446C99.3415 12.282 99.0335 12.2 98.6935 12.2C98.3575 12.2 98.0495 12.282 97.7695 12.446C97.4935 12.61 97.2735 12.83 97.1095 13.106C96.9455 13.382 96.8635 13.69 96.8635 14.03V17.324C96.8635 17.66 96.9455 17.968 97.1095 18.248C97.2735 18.524 97.4935 18.744 97.7695 18.908C98.0495 19.072 98.3575 19.154 98.6935 19.154ZM103.289 20V11.36H104.357V15.416L108.137 11.36H109.481L105.557 15.554L109.787 20H108.407L104.357 15.776V20H103.289Z" fill="#999999"/>
</svg>
